<?xml version="1.0" standalone="no"?>
<!DOCTYPE svg PUBLIC "-//W3C//DTD SVG 20010904//EN"
 "http://www.w3.org/TR/2001/REC-SVG-20010904/DTD/svg10.dtd">
<svg version="1.0" xmlns="http://www.w3.org/2000/svg"
 width="500.000000pt" height="500.000000pt" viewBox="0 0 500.000000 500.000000"
 preserveAspectRatio="xMidYMid meet">
<metadata>
Created by potrace 1.14, written by Peter Selinger 2001-2017
</metadata>
<g transform="translate(0.000000,500.000000) scale(0.100000,-0.100000)"
fill="#000000" stroke="none">
<path d="M1829 4162 c-12 -2 -49 -50 -49 -64 0 -1 338 -3 750 -3 413 0 750 2
750 3 0 12 -36 62 -45 63 -44 2 -1395 3 -1406 1z"/>
<path d="M2370 4035 c-36 -8 -105 -35 -155 -59 -260 -129 -406 -361 -408 -646
0 -130 18 -204 80 -330 76 -155 224 -288 390 -351 l63 -24 0 -41 c0 -33 4 -43
20 -47 11 -3 20 -1 20 5 0 5 5 6 10 3 6 -4 10 -115 10 -301 l0 -294 30 0 30 0
0 279 c0 279 6 333 36 345 8 3 12 1 9 -4 -3 -6 1 -7 9 -4 9 3 16 12 16 20 0 9
12 14 35 14 32 0 35 -2 35 -30 0 -27 3 -30 30 -30 l30 0 0 -100 c0 -73 3 -100
13 -101 6 0 20 -2 30 -4 15 -3 17 7 17 93 0 54 3 120 6 149 l7 51 58 22 c128
46 292 186 366 311 120 202 130 478 23 689 -88 175 -236 303 -422 365 -103 34
-283 44 -388 20z m345 -41 c140 -37 289 -137 372 -247 44 -58 96 -154 107
-197 4 -14 -7 3 -23 36 -107 227 -296 372 -531 410 -72 11 -210 6 -275 -11
-86 -23 -210 -86 -280 -142 -64 -52 -131 -134 -176 -216 -35 -63 -38 -55 -5
11 95 187 295 332 514 372 65 12 225 4 297 -16z m-58 -79 c189 -36 369 -173
451 -345 57 -119 66 -159 66 -290 0 -94 -4 -128 -23 -185 -38 -116 -80 -184
-166 -270 -134 -134 -271 -190 -460 -189 -139 1 -239 31 -349 105 -287 191
-375 556 -209 859 55 99 171 209 274 259 140 67 267 84 416 56z m-793 -400
c-8 -28 -19 -72 -24 -100 l-9 -50 4 50 c4 51 33 160 40 153 2 -2 -2 -26 -11
-53z m1364 -100 c0 -19 -5 -7 -13 30 -17 75 -17 92 0 40 8 -22 13 -53 13 -70z
m9 -122 c-2 -16 -4 -5 -4 22 0 28 2 40 4 28 2 -13 2 -35 0 -50z m-1400 -95
c-3 -8 -6 -5 -6 6 -1 11 2 17 5 13 3 -3 4 -12 1 -19z m1390 0 c-3 -8 -6 -5 -6
6 -1 11 2 17 5 13 3 -3 4 -12 1 -19z"/>
<path d="M2422 3885 c-233 -43 -428 -228 -487 -460 -67 -263 70 -560 316 -683
117 -59 192 -76 309 -70 273 14 499 200 566 468 24 97 15 263 -19 353 -108
280 -398 446 -685 392z m279 -358 c18 -12 39 -33 45 -46 10 -20 9 -26 -9 -44
-12 -12 -27 -21 -34 -19 -7 1 -40 -24 -75 -57 -65 -63 -88 -67 -88 -14 0 28
100 202 116 203 6 0 26 -10 45 -23z"/>
<path d="M3499 3932 c-106 -11 -99 16 -99 -368 l0 -334 27 -17 c25 -16 58 -18
365 -18 326 0 338 1 358 20 19 20 21 37 27 315 3 163 3 312 -1 333 -13 68 -22
70 -335 73 -152 1 -306 -1 -342 -4z m390 -237 c28 -25 29 -27 13 -44 -9 -10
-18 -17 -20 -16 -1 2 -25 -19 -52 -45 -51 -49 -60 -51 -60 -17 0 22 69 147 81
147 4 0 21 -11 38 -25z"/>
<path d="M687 3803 c-11 -10 -8 -53 3 -53 6 0 10 14 10 30 0 31 -2 35 -13 23z"/>
<path d="M4360 3782 c0 -22 5 -32 16 -32 11 0 14 6 9 23 -12 38 -25 43 -25 9z"/>
<path d="M1280 3543 c-338 -3 -376 -5 -387 -20 -20 -26 -18 -272 3 -301 l15
-22 383 0 c314 0 386 3 402 14 17 13 19 27 19 156 0 137 -1 142 -24 161 -13
10 -26 18 -30 17 -3 -2 -175 -4 -381 -5z m-216 -109 c23 -9 20 -60 -4 -84 -39
-39 -98 -12 -85 39 12 47 42 63 89 45z m287 -3 c-32 -9 -37 -27 -12 -41 26
-14 27 -36 2 -50 -26 -13 -61 -13 -61 1 0 6 8 8 18 5 9 -3 24 -1 32 4 13 8 10
14 -15 34 -25 20 -28 26 -16 40 8 9 27 16 45 15 28 -1 29 -2 7 -8z m69 -31
c-15 -11 -20 -43 -8 -57 10 -13 9 -15 -7 -11 -15 3 -19 11 -18 33 1 16 -3 33
-10 37 -8 5 -7 8 4 8 9 0 20 8 24 18 7 16 8 15 15 -3 4 -11 4 -22 0 -25z
m-245 1 c7 -13 -6 -71 -16 -71 -5 0 -8 15 -7 33 2 23 -1 32 -12 32 -8 0 -19
-15 -25 -32 -5 -18 -13 -33 -17 -33 -10 0 -10 8 -2 47 5 26 11 30 40 31 18 1
36 -3 39 -7z m93 -13 c3 -14 -3 -18 -28 -18 -21 0 -30 -4 -27 -12 2 -7 13 -13
25 -12 12 0 19 -3 16 -8 -8 -13 -41 -9 -54 7 -22 26 3 67 37 63 17 -2 29 -10
31 -20z m250 0 c3 -14 -3 -18 -28 -18 -21 0 -30 -4 -27 -12 2 -7 13 -13 25
-12 12 0 19 -3 16 -8 -15 -23 -64 1 -64 32 0 39 71 55 78 18z m100 -6 c5 -32
-16 -55 -44 -48 -17 5 -24 1 -29 -14 -3 -11 -11 -20 -17 -20 -5 0 -7 7 -4 16
3 9 9 33 12 54 6 36 8 38 43 36 29 -1 37 -5 39 -24z"/>
<path d="M1012 3418 c-17 -17 -15 -65 3 -72 8 -3 21 2 30 10 20 20 19 60 -1
68 -20 8 -18 8 -32 -6z"/>
<path d="M1215 3390 c-4 -6 5 -10 20 -10 15 0 24 4 20 10 -3 6 -12 10 -20 10
-8 0 -17 -4 -20 -10z"/>
<path d="M1465 3390 c-4 -6 5 -10 20 -10 15 0 24 4 20 10 -3 6 -12 10 -20 10
-8 0 -17 -4 -20 -10z"/>
<path d="M1564 3386 c-9 -24 3 -47 21 -40 18 7 16 45 -2 52 -7 2 -16 -3 -19
-12z"/>
<path d="M1238 3036 c-65 -17 -111 -56 -142 -118 -66 -131 3 -281 148 -323 50
-15 59 -15 111 1 110 31 183 134 172 242 -11 104 -83 182 -186 202 -30 5 -54
10 -55 9 0 0 -22 -6 -48 -13z"/>
<path d="M3510 3020 c-96 -45 -144 -118 -144 -220 0 -249 332 -331 447 -110
25 48 28 64 25 121 -7 128 -94 217 -220 226 -49 3 -73 -1 -108 -17z"/>
<path d="M1051 2701 c17 -48 76 -108 132 -134 80 -38 166 -35 243 7 55 31 125
109 124 140 -1 6 -10 -5 -20 -26 -28 -52 -82 -93 -150 -111 -77 -22 -108 -21
-170 2 -69 26 -116 64 -140 112 -24 46 -33 51 -19 10z"/>
<path d="M2400 1839 c0 -27 -14 -36 -52 -30 -3 0 -9 -13 -13 -29 l-7 -30 -869
0 -869 0 0 -41 c0 -50 47 -766 55 -828 7 -60 28 -89 83 -114 l47 -22 1745 0
c1459 0 1753 2 1793 14 55 16 94 56 102 104 3 18 16 203 30 412 13 209 27 401
29 428 l5 47 -874 0 -874 0 -3 48 c-3 45 -4 47 -35 50 -18 2 -33 -1 -33 -6 0
-6 -9 -8 -20 -5 -21 6 -53 -14 -45 -27 2 -4 -11 -6 -30 -6 -19 1 -37 7 -40 14
-3 8 -10 10 -17 5 -17 -10 -38 -13 -37 -5 1 4 0 10 -1 15 -1 4 -3 12 -4 18 0
6 -16 13 -33 14 -30 2 -33 0 -33 -26z m-725 -404 c0 -12 -9 -21 -25 -25 -14
-3 -25 -11 -25 -17 0 -6 -3 -15 -7 -19 -5 -4 -8 14 -8 40 l0 47 33 -3 c24 -2
32 -8 32 -23z m106 4 c24 -46 -33 -93 -69 -57 -13 13 -16 60 -5 71 15 16 63 6
74 -14z m69 -60 c23 -6 22 -7 -7 -8 -33 -1 -33 -1 -32 47 l2 47 6 -40 c5 -31
11 -41 31 -46z m102 39 c10 -23 15 -44 12 -47 -4 -3 -9 0 -11 7 -5 14 -53 17
-53 2 0 -5 -4 -10 -10 -10 -5 0 -2 20 8 45 9 25 21 45 27 45 5 0 18 -19 27
-42z m105 26 c3 -9 0 -20 -7 -24 -11 -7 -11 -11 0 -24 7 -9 10 -19 7 -22 -3
-3 -12 3 -19 15 -17 27 -36 27 -41 -1 -2 -13 -5 -2 -6 25 -1 46 0 47 29 47 19
0 33 -6 37 -16z m109 -11 c8 -32 -6 -57 -35 -61 -28 -4 -51 14 -51 42 0 30 18
46 52 46 22 0 29 -6 34 -27z m44 -18 c0 -25 -4 -45 -10 -45 -5 0 -10 20 -10
45 0 25 5 45 10 45 6 0 10 -20 10 -45z m95 0 c0 -39 -1 -40 -35 -40 -31 0 -35
3 -38 28 -5 46 4 59 40 55 31 -3 33 -5 33 -43z m105 -36 c23 -6 22 -7 -7 -8
-33 -1 -33 -1 -32 47 l2 47 6 -40 c5 -31 11 -41 31 -46z m103 39 c9 -23 14
-44 11 -47 -4 -3 -9 0 -11 7 -5 14 -53 17 -53 2 0 -5 -4 -10 -10 -10 -5 0 -2
20 8 45 9 25 21 45 28 45 6 0 18 -19 27 -42z m72 10 l20 -33 6 35 c6 32 6 30
7 -15 l1 -50 -28 35 -29 35 -5 -35 c-3 -30 -4 -28 -5 13 -1 26 2 47 6 47 4 0
16 -15 27 -32z m133 20 c7 -7 12 -21 12 -33 0 -29 -19 -45 -52 -45 -27 0 -28
2 -28 45 0 43 1 45 28 45 15 0 33 -5 40 -12z m140 -8 c5 -13 3 -13 -11 -1 -23
19 -47 7 -47 -24 0 -31 24 -43 47 -24 14 12 16 12 11 -1 -3 -9 -17 -15 -34
-15 -35 0 -56 43 -34 70 16 19 61 16 68 -5z m88 -15 c7 -19 14 -40 13 -47 0
-10 -2 -10 -6 0 -6 15 -45 16 -61 0 -16 -16 -15 -6 4 42 9 22 20 40 26 40 5 0
16 -16 24 -35z m73 3 l9 -33 7 33 c12 51 35 41 34 -15 -2 -47 -2 -47 -9 -13
l-7 35 -8 -32 c-4 -18 -11 -33 -16 -33 -5 0 -13 15 -18 33 l-9 32 -1 -32 c-1
-51 -21 -39 -21 12 0 55 24 63 39 13z m119 25 c-16 -2 -28 -11 -28 -19 0 -8
11 -15 28 -15 l27 -2 -27 -4 c-39 -6 -35 -31 5 -36 31 -4 31 -4 -5 -5 l-38 -2
0 45 c0 44 0 45 33 44 30 -2 30 -2 5 -6z m122 -12 c0 -11 -6 -21 -12 -24 -10
-3 -10 -8 1 -21 8 -9 11 -19 8 -22 -3 -3 -12 3 -19 15 -17 27 -36 27 -41 -1
-2 -13 -5 -2 -6 25 l-1 47 35 0 c28 0 35 -4 35 -19z m85 -17 c8 -20 15 -42 14
-48 0 -7 -2 -6 -6 2 -6 15 -45 16 -61 0 -9 -9 -12 -9 -12 0 0 18 33 82 42 82
4 0 15 -16 23 -36z"/>
<path d="M1630 1435 c0 -8 7 -15 15 -15 8 0 15 7 15 15 0 8 -7 15 -15 15 -8 0
-15 -7 -15 -15z"/>
<path d="M1715 1429 c-9 -26 16 -55 40 -45 25 9 16 60 -12 64 -15 2 -23 -3
-28 -19z"/>
<path d="M1917 1433 c-12 -12 -7 -33 8 -33 17 0 19 9 7 28 -5 7 -11 9 -15 5z"/>
<path d="M2000 1435 c0 -11 7 -15 23 -13 12 2 22 8 22 13 0 6 -10 11 -22 13
-16 2 -23 -2 -23 -13z"/>
<path d="M2104 1436 c-17 -43 25 -75 46 -36 9 16 8 25 -1 36 -15 18 -38 18
-45 0z"/>
<path d="M2250 1415 c0 -37 18 -47 40 -20 16 19 3 55 -21 55 -15 0 -19 -7 -19
-35z"/>
<path d="M2477 1433 c-12 -12 -7 -33 8 -33 17 0 19 9 7 28 -5 7 -11 9 -15 5z"/>
<path d="M2670 1415 c0 -29 3 -36 18 -33 11 2 17 13 17 33 0 20 -6 31 -17 33
-15 3 -18 -4 -18 -33z"/>
<path d="M2910 1420 c0 -11 5 -20 10 -20 6 0 10 9 10 20 0 11 -4 20 -10 20 -5
0 -10 -9 -10 -20z"/>
<path d="M3200 1435 c0 -11 7 -15 23 -13 12 2 22 8 22 13 0 6 -10 11 -22 13
-16 2 -23 -2 -23 -13z"/>
<path d="M3310 1420 c0 -11 5 -20 10 -20 6 0 10 9 10 20 0 11 -4 20 -10 20 -5
0 -10 -9 -10 -20z"/>
</g>
</svg>
